<svg width="15" height="15" viewBox="0 0 15 15" fill="none" xmlns="http://www.w3.org/2000/svg">
<path fill-rule="evenodd" clip-rule="evenodd" d="M5.91549 4.26313C6.04315 4.26014 6.17751 4.2936 6.30623 4.36773L10.4443 6.91553C10.6697 7.05464 10.8239 7.30997 10.8239 7.60879C10.8239 7.90761 10.6697 8.16293 10.4443 8.30204L6.30623 10.8498C5.79117 11.1465 5.20216 10.7685 5.18913 10.1455V5.06644C5.19899 4.59928 5.53233 4.27229 5.91549 4.26313ZM7.47826 0.565308C3.58833 0.565308 0.434784 3.71885 0.434784 7.60879C0.434784 11.4987 3.58833 14.6523 7.47826 14.6523C11.3682 14.6523 14.5217 11.4987 14.5217 7.60879C14.5217 3.71885 11.3682 0.565308 7.47826 0.565308Z" fill="white"/>
<mask id="mask0" mask-type="alpha" maskUnits="userSpaceOnUse" x="0" y="0" width="15" height="15">
<path fill-rule="evenodd" clip-rule="evenodd" d="M0.434784 0.565308H14.5217V14.6522H0.434784V0.565308Z" fill="white"/>
</mask>
<g mask="url(#mask0)">
</g>
</svg>
