<svg width="17" height="19" viewBox="0 0 17 19" fill="none" xmlns="http://www.w3.org/2000/svg">
<path d="M11 4.27778C11 6.21077 9.20914 7 7 7C4.79086 7 3 6.21077 3 4.27778C3 2.34478 4.79086 0 7 0C9.20914 0 11 2.34478 11 4.27778Z" fill="white"/>
<path d="M14 12.1667C14 14.9281 10.866 18 7 18C3.13401 18 0 14.9281 0 12.1667C0 9.40524 3.13401 8 7 8C10.866 8 14 9.40524 14 12.1667Z" fill="white"/>
<circle cx="12" cy="14" r="5" fill="#EEEEEE"/>
<path d="M12 10.4286C12.5683 10.4286 13.1133 10.6544 13.5152 11.0562C13.9171 11.4581 14.1428 12.0031 14.1428 12.5714V13.2857H14.8571V16.8572C14.8571 17.0466 14.7819 17.2283 14.6479 17.3622C14.5139 17.4962 14.3323 17.5714 14.1428 17.5714H9.85711C9.66767 17.5714 9.48599 17.4962 9.35203 17.3622C9.21808 17.2283 9.14282 17.0466 9.14282 16.8572V13.2857H9.85711V12.5714C9.85711 12.0031 10.0829 11.4581 10.4847 11.0562C10.8866 10.6544 11.4316 10.4286 12 10.4286ZM12 11.8572C11.6335 11.8572 11.2857 12.1786 11.2857 12.5714V13.2857H12.7143V12.5714C12.7143 12.382 12.639 12.2003 12.505 12.0664C12.3711 11.9324 12.1894 11.8572 12 11.8572Z" fill="black"/>
</svg>
