<svg width="17" height="19" viewBox="0 0 17 19" fill="none" xmlns="http://www.w3.org/2000/svg">
<path d="M11 4.27778C11 6.21077 9.20914 7 7 7C4.79086 7 3 6.21077 3 4.27778C3 2.34478 4.79086 0 7 0C9.20914 0 11 2.34478 11 4.27778Z" fill="white"/>
<path d="M14 12.1667C14 14.9281 10.866 18 7 18C3.13401 18 0 14.9281 0 12.1667C0 9.40524 3.13401 8 7 8C10.866 8 14 9.40524 14 12.1667Z" fill="white"/>
<circle cx="12" cy="14" r="5" fill="#EEEEEE"/>
<circle cx="12" cy="14" r="3.5" stroke="black"/>
<line x1="9.35355" y1="11.6464" x2="14.0629" y2="16.3558" stroke="black"/>
</svg>
