<svg width="17" height="19" viewBox="0 0 17 19" fill="none" xmlns="http://www.w3.org/2000/svg">
<path d="M11 4.27778C11 6.21077 9.20914 7 7 7C4.79086 7 3 6.21077 3 4.27778C3 2.34478 4.79086 0 7 0C9.20914 0 11 2.34478 11 4.27778Z" fill="#C4C4C4"/>
<path d="M14 12.1667C14 14.9281 10.866 18 7 18C3.13401 18 0 14.9281 0 12.1667C0 9.40524 3.13401 8 7 8C10.866 8 14 9.40524 14 12.1667Z" fill="#C4C4C4"/>
<circle cx="12" cy="14" r="5" fill="white"/>
<path d="M11.5 13.7551L13.4445 11.8105L14 12.366L12.0555 14.3105L14 16.2551L13.4445 16.8105L11.5 14.866L9.55547 16.8105L9 16.2551L10.9445 14.3105L9 12.366L9.55547 11.8105L11.5 13.7551Z" fill="#C4C4C4"/>
</svg>
