<svg width="22" height="23" viewBox="0 0 22 23" fill="none" xmlns="http://www.w3.org/2000/svg">
<path d="M16.3958 14.7162C16.1784 14.6 16.0426 14.3736 16.0426 14.1268V13.4584H11.3635C10.9942 13.4584 10.6951 13.1594 10.6951 12.7899V10.1162C10.6951 9.7467 10.9942 9.44771 11.3635 9.44771H16.0426V8.77927C16.0426 8.53236 16.1784 8.30593 16.3958 8.18979C16.6126 8.0742 16.8769 8.08729 17.082 8.22307L21.0927 10.8968C21.2787 11.0208 21.3903 11.2297 21.3903 11.453C21.3903 11.6761 21.2787 11.885 21.0927 12.0091L17.082 14.6829C16.8747 14.8212 16.6102 14.8312 16.3958 14.7162Z" fill="#FF8A8A"/>
<path d="M14.7057 0.668887V8.11088H11.3635C11.123 8.11088 10.909 8.15085 10.6951 8.23106V4.67954C10.6951 3.93075 10.2806 3.24908 9.5856 2.88812L3.82349 0.000444412H14.0373C14.4118 0.000444412 14.7057 0.29442 14.7057 0.668887Z" fill="#EDEDED"/>
<path d="M11.3635 14.7952H14.7057V19.4742C14.7057 19.8486 14.4118 20.1426 14.0373 20.1426H10.6951V14.6749C10.909 14.7551 11.123 14.7952 11.3635 14.7952Z" fill="#EDEDED"/>
<path d="M8.98401 4.07792L0.962558 0.0672625C0.762164 -0.0264588 0.508017 -0.0264588 0.320853 0.0940002C0.120459 0.227549 0 0.441451 0 0.668861V19.4742C0 19.7685 0.187164 20.0225 0.45468 20.1027L8.47599 22.7765C8.67291 22.8553 8.92496 22.8108 9.07745 22.6963C9.25139 22.5626 9.35834 22.3621 9.35834 22.1483V4.67952C9.3582 4.42551 9.21128 4.1981 8.98401 4.07792ZM6.68443 12.79C6.68443 13.1641 6.39045 13.4584 6.01599 13.4584C5.6418 13.4584 5.34754 13.1641 5.34754 12.79V10.1162C5.34754 9.74186 5.6418 9.44774 6.01599 9.44774C6.39045 9.44774 6.68443 9.74186 6.68443 10.1162V12.79Z" fill="#FF8A8A"/>
</svg>
