<svg width="22" height="23" viewBox="0 0 22 23" fill="none" xmlns="http://www.w3.org/2000/svg">
<path d="M16.3958 14.7161C16.1784 14.6 16.0426 14.3735 16.0426 14.1268V13.4583H11.3635C10.9942 13.4583 10.6951 13.1593 10.6951 12.7899V10.1161C10.6951 9.74666 10.9942 9.44767 11.3635 9.44767H16.0426V8.77923C16.0426 8.53233 16.1784 8.30589 16.3958 8.18975C16.6126 8.07416 16.8769 8.08725 17.082 8.22303L21.0927 10.8968C21.2787 11.0207 21.3903 11.2296 21.3903 11.453C21.3903 11.6761 21.2787 11.885 21.0927 12.0091L17.082 14.6828C16.8747 14.8211 16.6102 14.8311 16.3958 14.7161Z" fill="#C4C4C4"/>
<path d="M14.7058 0.668931V8.11093H11.3636C11.1231 8.11093 10.909 8.1509 10.6951 8.23111V4.67959C10.6951 3.93079 10.2807 3.24912 9.58563 2.88816L3.82352 0.000488281H14.0373C14.4118 0.000488281 14.7058 0.294464 14.7058 0.668931Z" fill="#EDEDED"/>
<path d="M11.3635 14.7952H14.7057V19.4742C14.7057 19.8487 14.4118 20.1426 14.0373 20.1426H10.6951V14.6749C10.909 14.7551 11.123 14.7952 11.3635 14.7952Z" fill="#EDEDED"/>
<path d="M8.98401 4.07792L0.962558 0.0672625C0.762164 -0.0264588 0.508017 -0.0264588 0.320853 0.0940002C0.120459 0.227549 0 0.441451 0 0.668861V19.4742C0 19.7685 0.187164 20.0225 0.45468 20.1027L8.47599 22.7765C8.67291 22.8553 8.92496 22.8108 9.07745 22.6963C9.25139 22.5626 9.35834 22.3621 9.35834 22.1483V4.67952C9.3582 4.42551 9.21128 4.1981 8.98401 4.07792ZM6.68443 12.79C6.68443 13.1641 6.39045 13.4584 6.01599 13.4584C5.6418 13.4584 5.34754 13.1641 5.34754 12.79V10.1162C5.34754 9.74186 5.6418 9.44774 6.01599 9.44774C6.39045 9.44774 6.68443 9.74186 6.68443 10.1162V12.79Z" fill="#C4C4C4"/>
</svg>
