<svg width="32" height="28" viewBox="0 0 32 28" fill="none" xmlns="http://www.w3.org/2000/svg">
<path d="M3.42856 19.2718C2.58699 17.8141 3.08642 15.9502 4.54407 15.1087L8.50304 12.823L11.5507 18.1016L7.59169 20.3873C6.13404 21.2289 4.27014 20.7295 3.42856 19.2718Z" fill="white"/>
<path d="M9.2923 20.2852L11.9316 18.7614L13.8364 22.0606C14.2572 22.7894 14.0074 23.7213 13.2786 24.1421C12.5498 24.5629 11.6178 24.3132 11.1971 23.5844L9.2923 20.2852Z" fill="white"/>
<path d="M15.1761 4.57143C16.3189 6.55091 20.6999 14.139 22.0332 16.4484C18.3905 15.4723 12.2105 17.7206 12.2105 17.7206L9.16287 12.442C9.16287 12.442 14.2 8.21416 15.1761 4.57143Z" fill="white"/>
<path d="M19.9243 9.74799L26.5226 5.93846" stroke="white" stroke-linecap="round"/>
<path d="M17.6829 5.63593L20.1316 2.71766" stroke="white" stroke-linecap="round"/>
<path d="M22.3095 13.6495L26.0612 12.988" stroke="white" stroke-linecap="round"/>
</svg>
