<svg width="21" height="18" viewBox="0 0 21 18" fill="none" xmlns="http://www.w3.org/2000/svg">
<path d="M0.928977 5.9233C0.969053 5.40231 1.40349 5 1.92603 5H3L4 18H2.15975C0.994734 18 0.0762926 17.0082 0.165646 15.8466L0.928977 5.9233Z" fill="#6A6A6A"/>
<path d="M5.25 2.5C5.25 1.25736 6.25736 0.25 7.5 0.25C8.74264 0.25 9.75 1.25736 9.75 2.5V7.75H5.25V2.5Z" stroke="#6A6A6A" stroke-width="0.5"/>
<path d="M7.25 2.5C7.25 1.25736 8.25736 0.25 9.5 0.25C10.7426 0.25 11.75 1.25736 11.75 2.5V7.75H7.25V2.5Z" stroke="black" stroke-width="0.5"/>
<path d="M3 5H15C15.5523 5 16 5.44772 16 6V16C16 17.1046 15.1046 18 14 18H4L3 5Z" fill="black"/>
<circle r="1" transform="matrix(-1 0 0 1 7 7)" fill="#C4C4C4"/>
<circle r="1" transform="matrix(-1 0 0 1 12 7)" fill="#C4C4C4"/>
<rect width="1.66667" height="7.22222" transform="matrix(-1 0 0 1 20.3333 10.7778)" fill="#C4C4C4"/>
<path d="M17.8611 9.38889C17.8611 8.7599 17.3512 8.25 16.7222 8.25C16.0932 8.25 15.5833 8.7599 15.5833 9.38889V12.1944H17.8611V9.38889Z" stroke="#C4C4C4" stroke-width="0.5"/>
<path d="M16.75 9.38889C16.75 8.7599 16.2401 8.25 15.6111 8.25C14.9821 8.25 14.4722 8.7599 14.4722 9.38889V12.1944H16.75V9.38889Z" stroke="#E7E7E7" stroke-width="0.5"/>
<rect width="6.66667" height="7.22222" transform="matrix(-1 0 0 1 18.6666 10.7778)" fill="#E7E7E7"/>
</svg>
