<svg width="20" height="18" viewBox="0 0 20 18" fill="none" xmlns="http://www.w3.org/2000/svg">
<path d="M18 5.05556C18 6.43627 16.6569 7 15 7C13.3431 7 12 6.43627 12 5.05556C12 3.67484 13.3431 2 15 2C16.6569 2 18 3.67484 18 5.05556Z" fill="#C4C4C4"/>
<path d="M20 11.3333C20 13.5425 17.7614 16 15 16C12.2386 16 10 13.5425 10 11.3333C10 9.12419 12.2386 8 15 8C17.7614 8 20 9.12419 20 11.3333Z" fill="#C4C4C4"/>
<path d="M11 4.27778C11 6.21077 9.20914 7 7 7C4.79086 7 3 6.21077 3 4.27778C3 2.34478 4.79086 0 7 0C9.20914 0 11 2.34478 11 4.27778Z" fill="black"/>
<path d="M13 12.1667C13 14.9281 10.0899 18 6.5 18C2.91015 18 0 14.9281 0 12.1667C0 9.40524 2.91015 8 6.5 8C10.0899 8 13 9.40524 13 12.1667Z" fill="black"/>
</svg>
