<svg width="21" height="17" viewBox="0 0 21 17" fill="none" xmlns="http://www.w3.org/2000/svg">
<path opacity="0.7" d="M1.91846 3.99274C1.91846 2.70408 2.96312 1.65941 4.25179 1.65941H18.6666C19.9552 1.65941 20.9999 2.70408 20.9999 3.99274V14.0001C20.9999 15.2888 19.9552 16.3335 18.6666 16.3335H4.25179C2.96312 16.3335 1.91846 15.2888 1.91846 14.0001V3.99274Z" fill="white"/>
<path d="M0 2.33333C0 1.04467 1.04467 0 2.33333 0H16.7481C18.0368 0 19.0815 1.04467 19.0815 2.33333V12.3407C19.0815 13.6294 18.0368 14.6741 16.7481 14.6741H2.33333C1.04467 14.6741 0 13.6294 0 12.3407V2.33333Z" fill="white"/>
<path d="M4.19995 4.40706C4.19995 4.00614 4.52496 3.68114 4.92588 3.68114H14.1036C14.5046 3.68114 14.8296 4.00614 14.8296 4.40706C14.8296 4.80798 14.5046 5.13299 14.1036 5.13299H4.92588C4.52496 5.13299 4.19995 4.80798 4.19995 4.40706Z" fill="#BBBBBB"/>
<path d="M4.19995 7.46669C4.19995 7.06578 4.52496 6.74077 4.92588 6.74077H9.54068C9.9416 6.74077 10.2666 7.06578 10.2666 7.46669C10.2666 7.86761 9.9416 8.19262 9.54068 8.19262H4.92588C4.52496 8.19262 4.19995 7.86761 4.19995 7.46669Z" fill="#BBBBBB"/>
</svg>
