<svg width="13" height="18" viewBox="0 0 13 18" fill="none" xmlns="http://www.w3.org/2000/svg">
<path d="M9.4232 4.439C9.65131 4.37542 9.89369 4.47168 10.0162 4.67424C11.5658 7.23885 12.3516 9.64443 12.3515 11.8242C12.3515 15.2294 9.58099 17.9999 6.1758 17.9999C2.77046 17.9999 0 15.2294 0 11.8242C0 10.4684 0.309676 9.00696 0.920238 7.48028C1.40226 6.27522 2.0727 5.02526 2.91287 3.76513C4.33752 1.62816 5.74362 0.213679 5.80295 0.154491C5.95374 0.00356685 6.18047 -0.0414769 6.37753 0.0402336C6.5746 0.121807 6.70314 0.314066 6.70314 0.527338V4.94698C6.70314 5.59064 7.22677 6.11413 7.87029 6.11413C8.51381 6.11413 9.03745 5.59064 9.03745 4.94698C9.03745 4.71036 9.19524 4.50258 9.4232 4.439Z" fill="white"/>
</svg>
