<svg width="16" height="16" viewBox="0 0 16 16" fill="none" xmlns="http://www.w3.org/2000/svg">
<path fill-rule="evenodd" clip-rule="evenodd" d="M6.22521 4.2C6.37021 4.1966 6.52281 4.2346 6.66901 4.3188L11.369 7.2126C11.625 7.3706 11.8002 7.6606 11.8002 8C11.8002 8.3394 11.625 8.62941 11.369 8.78741L6.66901 11.6812C6.08401 12.0182 5.41501 11.5888 5.40021 10.8812V5.1124C5.41141 4.5818 5.79001 4.2104 6.22521 4.2ZM8 0C3.5818 0 0 3.5818 0 8C0 12.4182 3.5818 16 8 16C12.4182 16 16 12.4182 16 8C16 3.5818 12.4182 0 8 0Z" fill="black"/>
</svg>
