<svg width="26" height="32" viewBox="0 0 26 32" fill="none" xmlns="http://www.w3.org/2000/svg">
<path fill-rule="evenodd" clip-rule="evenodd" d="M8.09138 7.98116V8.45932H17.2868V7.98116C17.2868 5.44323 15.227 3.3099 12.7626 3.3099H12.6155C10.1512 3.3099 8.09138 5.44323 8.09138 7.98116ZM23.7241 8.45977C24.1655 8.45977 24.5701 8.64368 24.9011 8.97471C25.1954 9.26897 25.3793 9.71035 25.3793 10.1517V30.3448C25.3793 31.2644 24.6437 32 23.7241 32H1.65517C0.735632 32 0 31.2644 0 30.3448V10.1885C0 9.23218 0.772414 8.45977 1.65517 8.45977H4.78161V7.98161C4.78161 3.64138 8.38621 0 12.6161 0H12.7632C17.0299 0 20.5977 3.67816 20.5977 7.98161V8.45977H23.7241ZM20.5977 13.9771C20.5977 14.9928 19.7743 15.8162 18.7586 15.8162C17.7429 15.8162 16.9195 14.9928 16.9195 13.9771C16.9195 12.9614 17.7429 12.138 18.7586 12.138C19.7743 12.138 20.5977 12.9614 20.5977 13.9771ZM8.45941 13.9773C8.45941 14.993 7.63603 15.8163 6.62033 15.8163C5.60463 15.8163 4.78125 14.993 4.78125 13.9773C4.78125 12.9616 5.60463 12.1382 6.62033 12.1382C7.63603 12.1382 8.45941 12.9616 8.45941 13.9773Z" fill="#F5222D"/>
</svg>