<svg width="110" height="45" viewBox="0 0 83 28" fill="none" xmlns="http://www.w3.org/2000/svg">

<path d="M4 27.5C3.52451 27.5 3.07236 27.4055 2.66038 27.2346L2.27732 28.1583C2.8086 28.3787 3.39076 28.5 4 28.5V27.5ZM0.765386 25.3396C0.594543 24.9276 0.5 24.4755 0.5 24H-0.5C-0.5 24.6092 -0.378653 25.1914 -0.15834 25.7227L0.765386 25.3396ZM0.5 24V21.5H-0.5V24H0.5ZM0.5 16.5V11.5H-0.5V16.5H0.5ZM0.5 6.5V4H-0.5V6.5H0.5ZM0.5 4C0.5 3.52451 0.594543 3.07236 0.765385 2.66038L-0.158341 2.27732C-0.378653 2.8086 -0.5 3.39076 -0.5 4H0.5ZM2.66038 0.765385C3.07236 0.594542 3.52451 0.5 4 0.5V-0.5C3.39076 -0.5 2.8086 -0.378653 2.27732 -0.158341L2.66038 0.765385ZM4 0.5H6.34375V-0.5H4V0.5ZM11.0312 0.5H15.7187V-0.5H11.0312V0.5ZM20.4062 0.5H25.0938V-0.5H20.4062V0.5ZM29.7812 0.5H34.4688V-0.5H29.7812V0.5ZM39.1562 0.5H43.8438V-0.5H39.1562V0.5ZM48.5312 0.5H53.2188V-0.5H48.5312V0.5ZM57.9062 0.5H62.5938V-0.5H57.9062V0.5ZM67.2812 0.5H71.9688V-0.5H67.2812V0.5ZM76.6562 0.5H79V-0.5H76.6562V0.5ZM79 0.5C79.4755 0.5 79.9276 0.594543 80.3396 0.765385L80.7227 -0.158341C80.1914 -0.378653 79.6092 -0.5 79 -0.5V0.5ZM82.2346 2.66038C82.4055 3.07236 82.5 3.52451 82.5 4H83.5C83.5 3.39076 83.3787 2.8086 83.1583 2.27732L82.2346 2.66038ZM82.5 4V6.5H83.5V4H82.5ZM82.5 11.5V16.5H83.5V11.5H82.5ZM82.5 21.5V24H83.5V21.5H82.5ZM82.5 24C82.5 24.4755 82.4055 24.9276 82.2346 25.3396L83.1583 25.7227C83.3787 25.1914 83.5 24.6092 83.5 24H82.5ZM80.3396 27.2346C79.9276 27.4055 79.4755 27.5 79 27.5V28.5C79.6092 28.5 80.1914 28.3787 80.7227 28.1583L80.3396 27.2346ZM79 27.5H76.6562V28.5H79V27.5ZM71.9688 27.5H67.2812V28.5H71.9688V27.5ZM62.5938 27.5H57.9062V28.5H62.5938V27.5ZM53.2188 27.5H48.5312V28.5H53.2188V27.5ZM43.8438 27.5H39.1562V28.5H43.8438V27.5ZM34.4688 27.5H29.7813V28.5H34.4688V27.5ZM25.0938 27.5H20.4063V28.5H25.0938V27.5ZM15.7188 27.5H11.0313V28.5H15.7188V27.5ZM6.34375 27.5H4V28.5H6.34375V27.5ZM4 27C3.59138 27 3.20424 26.9189 2.8519 26.7728L2.0858 28.6202C2.67672 28.8653 3.32389 29 4 29V27ZM1.22725 25.1481C1.08114 24.7958 1 24.4086 1 24H-1C-1 24.6761 -0.865251 25.3233 -0.620203 25.9142L1.22725 25.1481ZM1 24V21.5H-1V24H1ZM1 16.5V11.5H-1V16.5H1ZM1 6.5V4H-1V6.5H1ZM1 4C1 3.59138 1.08114 3.20424 1.22725 2.8519L-0.620204 2.08579C-0.865251 2.67672 -1 3.32388 -1 4H1ZM2.8519 1.22725C3.20424 1.08114 3.59138 1 4 1V-1C3.32389 -1 2.67672 -0.865251 2.08579 -0.620204L2.8519 1.22725ZM4 1H6.34375V-1H4V1ZM11.0312 1H15.7187V-1H11.0312V1ZM20.4062 1H25.0938V-1H20.4062V1ZM29.7812 1H34.4688V-1H29.7812V1ZM39.1562 1H43.8438V-1H39.1562V1ZM48.5312 1H53.2188V-1H48.5312V1ZM57.9062 1H62.5938V-1H57.9062V1ZM67.2812 1H71.9688V-1H67.2812V1ZM76.6562 1H79V-1H76.6562V1ZM79 1C79.4086 1 79.7958 1.08114 80.1481 1.22725L80.9142 -0.620204C80.3233 -0.865251 79.6761 -1 79 -1V1ZM81.7728 2.8519C81.9189 3.20424 82 3.59138 82 4H84C84 3.32388 83.8652 2.67672 83.6202 2.08579L81.7728 2.8519ZM82 4V6.5H84V4H82ZM82 11.5V16.5H84V11.5H82ZM82 21.5V24H84V21.5H82ZM82 24C82 24.4086 81.9189 24.7958 81.7728 25.1481L83.6202 25.9142C83.8652 25.3233 84 24.6761 84 24H82ZM80.1481 26.7728C79.7958 26.9189 79.4086 27 79 27V29C79.6761 29 80.3233 28.8653 80.9142 28.6202L80.1481 26.7728ZM79 27H76.6562V29H79V27ZM71.9688 27H67.2812V29H71.9688V27ZM62.5938 27H57.9062V29H62.5938V27ZM53.2188 27H48.5312V29H53.2188V27ZM43.8438 27H39.1562V29H43.8438V27ZM34.4688 27H29.7813V29H34.4688V27ZM25.0938 27H20.4063V29H25.0938V27ZM15.7188 27H11.0313V29H15.7188V27ZM6.34375 27H4V29H6.34375V27Z" fill="white"/>
</svg>
