<svg width="64" height="23" viewBox="0 0 64 23" fill="none" xmlns="http://www.w3.org/2000/svg">
<path d="M29.04 0V15.0546C29.04 16.7625 28.9852 17.9615 28.8755 18.6517C28.7658 19.3418 28.4368 20.0515 27.8884 20.7806C27.329 21.5179 26.5806 22.0901 25.7224 22.4363C24.828 22.8126 23.7734 23.0005 22.5586 23C21.2134 23 20.0264 22.7773 18.9975 22.3318C17.9687 21.8863 17.1993 21.3067 16.6893 20.5929C16.1988 19.9293 15.8871 19.1505 15.7844 18.3315C15.6917 17.5393 15.6454 15.8721 15.6454 13.3298V0H21.5008V16.8914C21.5008 17.8745 21.554 18.503 21.6603 18.7767C21.7667 19.0505 21.9825 19.1877 22.3077 19.1882C22.6779 19.1882 22.9173 19.0376 23.0234 18.7364C23.1295 18.4352 23.1838 17.7226 23.1838 16.5968V0H29.04Z" fill="white"/>
<path d="M37.1626 0V18.0221H40.7237V22.5301H31.3072V0H37.1626Z" fill="white"/>
<path d="M47.9973 0V18.0221H51.5584V22.5301H42.1419V0H47.9973Z" fill="white"/>
<path d="M63.1441 0V4.508L58.7834 18.0221H63.1433V22.5301H52.3513V19.2565L56.8576 4.50717H52.8795V0H63.1441Z" fill="white"/>
<path d="M14.6993 16.4133C14.6995 15.2246 14.3704 14.0592 13.7484 13.0463C13.1265 12.0335 12.2361 11.213 11.1761 10.6758C11.1761 10.6709 11.1761 10.6668 11.1761 10.6627L11.065 10.6215L10.9334 10.559V10.5763C10.6866 10.494 10.4291 10.4224 10.1478 10.359C10.3672 10.308 10.5747 10.2531 10.7705 10.1944V10.2043L10.8034 10.1887L10.8783 10.1656C10.8779 10.1615 10.8779 10.1574 10.8783 10.1533C11.7499 9.73214 12.4864 9.07551 13.0046 8.25759C13.5227 7.43967 13.8018 6.49308 13.8104 5.52478C13.8189 4.55649 13.5566 3.6051 13.053 2.77815C12.5494 1.95119 11.8246 1.28163 10.9605 0.845147C10.6688 0.67031 10.3566 0.532114 10.031 0.433683C9.08498 0.144561 7.68818 0 5.84058 0H0V4.14426C0.997834 3.70071 2.05654 3.75831 3.13911 4.07514C5.27791 4.70468 7.58124 5.26262 10.1865 5.04619C10.2079 5.04619 10.1527 5.08981 10.0762 5.1507C9.97141 5.23514 9.87623 5.3309 9.79243 5.43626C8.83902 6.60482 7.46196 6.79162 5.9541 6.78092C5.1685 6.77516 4.04152 6.04605 3.69849 7.01217C3.52656 7.49687 4.39771 8.37822 4.93241 8.97978C6.21569 10.4281 6.98155 12.0106 6.78165 13.9173C6.58011 15.8397 6.7323 15.9697 8.79706 15.5698C9.06277 15.5188 9.28323 15.4208 9.58513 15.3904C10.1856 15.3303 11.1086 15.2258 11.9831 15.2744C9.82698 16.8099 7.94154 19.1034 4.9793 17.5588V21.7887V22.5293H6.77919C8.68162 22.5293 10.0636 22.4415 10.9252 22.2659H10.9342L10.9482 22.2618C11.397 22.1097 11.8094 21.8659 12.1591 21.5459C12.9508 20.9455 13.5924 20.1694 14.0332 19.2787C14.474 18.3881 14.702 17.4071 14.6993 16.4133Z" fill="white"/>
</svg>
