<svg width="22" height="22" viewBox="0 0 22 22" fill="none" xmlns="http://www.w3.org/2000/svg">
<path d="M22 11C22 17.0751 17.0751 22 11 22C4.92487 22 0 17.0751 0 11C0 4.92487 4.92487 0 11 0C17.0751 0 22 4.92487 22 11Z" fill="#7F838B"/>
<path d="M10 10H21C21.5523 10 22 10.4477 22 11V21C22 21.5523 21.5523 22 21 22H11C10.4477 22 10 21.5523 10 21V10Z" fill="#7F838B"/>
<path d="M19 11C19 15.4183 15.4183 19 11 19C6.58172 19 3 15.4183 3 11C3 6.58172 6.58172 3 11 3C15.4183 3 19 6.58172 19 11Z" fill="#7F838B"/>
<path d="M10.2727 10.2727H18.2727C18.6744 10.2727 19 10.5983 19 11V18.2727C19 18.6744 18.6744 19 18.2727 19H11C10.5983 19 10.2727 18.6744 10.2727 18.2727V10.2727Z" fill="#7F838B"/>
</svg>
