<svg width="14" height="13" viewBox="0 0 14 13" fill="none" xmlns="http://www.w3.org/2000/svg">
<path d="M11.8 4.7002H6.39995C5.73721 4.7002 5.19995 5.23745 5.19995 5.9002V11.3002C5.19995 11.9629 5.73721 12.5002 6.39995 12.5002H11.8C12.4627 12.5002 13 11.9629 13 11.3002V5.9002C13 5.23745 12.4627 4.7002 11.8 4.7002Z" stroke="#3360FF" stroke-linecap="round" stroke-linejoin="round"/>
<path d="M2.8 8.3H2.2C1.88174 8.3 1.57652 8.17357 1.35147 7.94853C1.12643 7.72348 1 7.41826 1 7.1V1.7C1 1.38174 1.12643 1.07652 1.35147 0.851472C1.57652 0.626428 1.88174 0.5 2.2 0.5H7.6C7.91826 0.5 8.22348 0.626428 8.44853 0.851472C8.67357 1.07652 8.8 1.38174 8.8 1.7V2.3" stroke="#3360FF" stroke-linecap="round" stroke-linejoin="round"/>
</svg>
