<svg width="19" height="18" viewBox="0 0 19 18" fill="none" xmlns="http://www.w3.org/2000/svg">
<rect x="0.5" width="18.0002" height="18.0002" rx="9.00008" fill="none"/>
<path d="M13.5 7.5H9C8.44772 7.5 8 7.94772 8 8.5V13C8 13.5523 8.44772 14 9 14H13.5C14.0523 14 14.5 13.5523 14.5 13V8.5C14.5 7.94772 14.0523 7.5 13.5 7.5Z" stroke="white" stroke-linecap="round" stroke-linejoin="round"/>
<path d="M6 10.5H5.5C5.23478 10.5 4.98043 10.3946 4.79289 10.2071C4.60536 10.0196 4.5 9.76522 4.5 9.5V5C4.5 4.73478 4.60536 4.48043 4.79289 4.29289C4.98043 4.10536 5.23478 4 5.5 4H10C10.2652 4 10.5196 4.10536 10.7071 4.29289C10.8946 4.48043 11 4.73478 11 5V5.5" stroke="white" stroke-linecap="round" stroke-linejoin="round"/>
</svg>
