<svg width="65" height="65" viewBox="0 0 65 65" fill="none" xmlns="http://www.w3.org/2000/svg">
<g clip-path="url(#clip0)">
<path d="M2.2453 26.8965C2.2453 28.1293 3.24444 29.1379 4.49055 29.1379C5.73666 29.1379 6.7358 28.1293 6.7358 26.8965C6.7358 26.0672 6.28675 25.35 5.61318 24.9689V21.2931C6.23062 21.2931 6.7358 20.7888 6.7358 20.1724V13.4483C6.7358 12.8319 6.23062 12.3276 5.61318 12.3276V6.72412H3.36793V12.3276C2.75048 12.3276 2.2453 12.8319 2.2453 13.4483V20.1724C2.2453 20.7888 2.75048 21.2931 3.36793 21.2931V24.9689C2.70558 25.35 2.2453 26.0672 2.2453 26.8965Z" fill="#000"/>
<path d="M31.4447 13.4483H42.671C45.152 13.4483 47.1615 11.4422 47.1615 8.96552V4.48276C47.1615 2.00603 45.152 0 42.671 0H31.4447C28.9637 0 26.9542 2.00603 26.9542 4.48276V8.96552C26.9542 11.4422 28.9637 13.4483 31.4447 13.4483ZM41.5483 4.48276C42.7832 4.48276 43.7936 5.48017 43.7936 6.72414C43.7936 7.9681 42.7832 8.96552 41.5483 8.96552C40.3135 8.96552 39.3031 7.9569 39.3031 6.72414C39.3031 5.49138 40.3022 4.48276 41.5483 4.48276ZM32.5673 4.48276C33.8022 4.48276 34.8126 5.48017 34.8126 6.72414C34.8126 7.9681 33.8022 8.96552 32.5673 8.96552C31.3325 8.96552 30.3221 7.9569 30.3221 6.72414C30.3221 5.49138 31.3212 4.48276 32.5673 4.48276Z" fill="#000"/>
<path d="M55.0198 23.5344C55.0198 21.6853 53.5043 20.1724 51.652 20.1724C50.7539 20.1724 49.9231 20.531 49.3057 21.1474C50.3834 22.7612 50.7763 24.6887 50.3946 26.5827L50.3834 26.6275C50.7875 26.7956 51.2141 26.8853 51.652 26.8853C53.5043 26.8965 55.0198 25.3836 55.0198 23.5344Z" fill="#000"/>
<path d="M33.8135 18.7041L34.0268 18.917C35.6434 20.5308 38.4837 20.542 40.1002 18.917L40.3135 18.7153L39.5502 15.6895H34.5657L33.8135 18.7041Z" fill="#000"/>
<path d="M48.8229 48.9516L46.3195 39.9637C46.2297 39.6163 46.0837 39.2913 45.9153 38.9551C43.6027 41.1965 40.4594 42.5749 37.0466 42.5749C33.6338 42.5749 30.5017 41.1965 28.1779 38.9551C28.0095 39.2801 27.8748 39.6163 27.7737 39.9525L25.2703 48.9404C28.4585 52.0671 32.601 53.793 37.0578 53.793C41.5034 53.793 45.6571 52.0671 48.8229 48.9516Z" fill="#000"/>
<path d="M26.6624 31.3232C27.3921 36.4672 31.8601 40.3448 37.0579 40.3448C42.2556 40.3448 46.7349 36.4672 47.4534 31.3232L48.1719 26.2129C48.4525 24.8008 48.1607 23.4224 47.3636 22.2793C46.443 20.9568 44.804 20.1724 42.9854 20.1724H42.0087L41.6831 20.4974C40.4482 21.7301 38.798 22.4137 37.0579 22.4137C35.3066 22.4137 33.6676 21.7301 32.4327 20.4974L32.0959 20.1724H31.1192C29.3006 20.1724 27.6615 20.9568 26.741 22.2793C25.9439 23.4224 25.652 24.8008 25.9215 26.1456L26.6624 31.3232ZM44.9163 23.5344C45.5337 23.5344 46.0389 24.0387 46.0389 24.6551C46.0389 25.2715 45.5337 25.7758 44.9163 25.7758C44.2988 25.7758 43.7936 25.2715 43.7936 24.6551C43.7936 24.0387 44.2988 23.5344 44.9163 23.5344ZM37.0579 25.7758C40.1563 25.7758 42.671 28.2862 42.671 31.3793C42.671 34.4724 40.1563 36.9827 37.0579 36.9827C33.9594 36.9827 31.4448 34.4724 31.4448 31.3793C31.4448 28.2862 33.9594 25.7758 37.0579 25.7758ZM29.1995 23.5344C29.817 23.5344 30.3221 24.0387 30.3221 24.6551C30.3221 25.2715 29.817 25.7758 29.1995 25.7758C28.5821 25.7758 28.0769 25.2715 28.0769 24.6551C28.0769 24.0387 28.5821 23.5344 29.1995 23.5344Z" fill="#000"/>
<path d="M49.3057 10.0864H50.5293C51.1468 10.0864 51.652 9.58213 51.652 8.96575V4.48299C51.652 3.86661 51.1468 3.3623 50.5293 3.3623H49.3057C49.373 3.73213 49.4067 4.10196 49.4067 4.48299V8.96575C49.4067 9.34679 49.3618 9.71661 49.3057 10.0864Z" fill="#000"/>
<path d="M23.5864 10.0864H24.81C24.7427 9.71661 24.709 9.34679 24.709 8.96575V4.48299C24.709 4.10196 24.7427 3.73213 24.81 3.3623H23.5864C22.9689 3.3623 22.4637 3.86661 22.4637 4.48299V8.96575C22.4637 9.58213 22.9689 10.0864 23.5864 10.0864Z" fill="#000"/>
<path d="M58.1744 44.9508C58.6123 44.8724 59.0501 44.8275 59.4991 44.8275C59.7124 44.8275 59.9145 44.8387 60.1166 44.8612L59.4542 39.6724L57.5009 40.4232L58.1744 44.9508Z" fill="#000"/>
<path d="M56.8833 38.2493L58.9265 37.4648L58.2978 35.8286L56.2771 36.7028L56.8833 38.2493Z" fill="#000"/>
<path d="M55.1882 27.8491C54.6269 28.3086 53.9758 28.6672 53.2573 28.8802L53.8299 30.3483L55.8394 29.4853L55.1882 27.8491Z" fill="#000"/>
<path d="M55.4688 34.6069L57.4895 33.744L56.6476 31.5811L54.6268 32.4328L55.4688 34.6069Z" fill="#000"/>
<path d="M24.608 51.4062L23.5864 55.0597C23.6537 56.2364 24.6416 57.1666 25.8316 57.1666C25.9888 57.1666 26.1572 57.1442 26.3592 57.0994L27.0328 56.9313L27.4819 57.4692C28.1667 58.2873 29.323 58.545 30.2884 57.9847L31.2202 57.458L31.7928 58.3657C32.2081 59.0157 32.9154 59.408 33.69 59.408C33.8472 59.408 34.0155 59.3856 34.2176 59.3407L34.8912 59.1726L35.3402 59.7106C36.2047 60.7528 37.8998 60.7528 38.7755 59.7106L39.2245 59.1726L39.8981 59.3407C40.1002 59.3856 40.2686 59.408 40.4257 59.408C41.1891 59.408 41.8964 59.0157 42.323 58.3545L42.8955 57.4468L43.8273 57.9735C44.804 58.5226 45.9603 58.2761 46.6451 57.458L47.0941 56.92L47.7677 57.0881C47.9698 57.133 48.1382 57.1666 48.2953 57.1666C49.4853 57.1666 50.462 56.2364 50.5406 55.0597L49.5302 51.4062C46.0389 54.3985 41.6943 56.0347 37.0579 56.0347C32.4214 56.0347 28.0656 54.3985 24.608 51.4062Z" fill="#000"/>
<path d="M23.7099 26.5267C23.3394 24.6887 23.7323 22.7724 24.81 21.1474C24.1926 20.531 23.3506 20.1724 22.4638 20.1724C20.6114 20.1724 19.0959 21.6853 19.0959 23.5344C19.0959 25.3836 20.6114 26.8965 22.4638 26.8965C22.9016 26.8965 23.3282 26.8068 23.7323 26.6387L23.7099 26.5267Z" fill="#000"/>
<path d="M20.2073 31.3795H22.4525V29.1381C21.6555 29.1381 20.8921 28.9588 20.2073 28.6562V31.3795Z" fill="#000"/>
<path d="M17.3221 38.8545L18.4447 40.8045C19.2979 40.1881 20.0501 39.4484 20.6675 38.5855L18.7141 37.4536C18.31 37.9803 17.8497 38.451 17.3221 38.8545Z" fill="#000"/>
<path d="M19.7807 35.4922L21.7565 36.6241C22.1382 35.6827 22.3627 34.6741 22.4301 33.6206H20.1848C20.1287 34.2706 19.994 34.8982 19.7807 35.4922Z" fill="#000"/>
<path d="M59.4992 47.0688C56.7825 47.0688 54.5148 48.9964 53.9984 51.5516H56.3222C56.7825 50.2516 58.0398 49.3102 59.4992 49.3102C60.9586 49.3102 62.216 50.2516 62.6762 51.5516H65.0001C64.4837 48.9964 62.216 47.0688 59.4992 47.0688Z" fill="#000"/>
<path d="M47.8913 59.3743C46.735 60.4053 45.0847 60.7751 43.6029 60.3156C42.6823 61.2458 41.4025 61.7501 40.0329 61.6156C39.2134 62.3441 38.1581 62.7587 37.058 62.7587C35.9578 62.7587 34.9025 62.3441 34.083 61.6156C32.7022 61.7501 31.4336 61.2458 30.5131 60.3156C29.0424 60.7863 27.3809 60.4053 26.2246 59.3743C25.0908 59.4863 24.058 59.1501 23.2272 58.5562L22.5761 65.0001H51.5286L50.8775 58.5562C50.058 59.1501 49.0139 59.4863 47.8913 59.3743Z" fill="#000"/>
<path d="M8.981 29.1377H7.66753C7.20725 30.4377 5.94991 31.3791 4.4905 31.3791C3.03109 31.3791 1.77375 30.4377 1.31347 29.1377H0C0 31.6144 2.0095 33.6205 4.4905 33.6205C6.9715 33.6205 8.981 31.6144 8.981 29.1377Z" fill="#000"/>
<path d="M8.45337 41.4768C9.30656 41.9251 10.2383 42.2613 11.2263 42.4294V40.1208C10.6537 39.9863 10.1036 39.7846 9.58722 39.5156L8.45337 41.4768Z" fill="#000"/>
<path d="M13.4715 40.3112V42.5525C14.5268 42.4853 15.5371 42.2612 16.4801 41.8801L15.3463 39.9077C14.7513 40.1319 14.1226 40.2663 13.4715 40.3112Z" fill="#000"/>
<path d="M4.49058 35.8619C4.25483 35.8619 4.00785 35.8507 3.78333 35.8283C4.29973 37.5541 5.29887 39.0559 6.60112 40.2102L7.76865 38.1929C7.05017 37.4757 6.4664 36.6352 6.09593 35.6714C5.57953 35.7835 5.04067 35.8619 4.49058 35.8619Z" fill="#000"/>
<path d="M35.9352 34.7412H38.1805V32.4998H40.4257V30.2585H38.1805V28.0171H35.9352V30.2585H33.69V32.4998H35.9352V34.7412Z" fill="#000"/>
</g>
<defs>
<clipPath id="clip0">
<rect width="65" height="65" fill="white"/>
</clipPath>
</defs>
</svg>