<svg width="303" height="152" viewBox="0 0 303 152" fill="none" xmlns="http://www.w3.org/2000/svg">
<ellipse opacity="0.6" cx="67.9982" cy="53.9993" rx="60" ry="42" transform="rotate(-12.218 67.9982 53.9993)" fill="#1A1A20"/>
<circle cx="245" cy="134" r="18" fill="#1A1A20"/>
<circle opacity="0.2" cx="204" cy="108" r="6.5" stroke="#C4C4C4"/>
<g opacity="0.2">
<mask id="path-4-inside-1_618:5721" fill="white">
<path d="M199.156 97.0211C200.851 96.2732 202.697 95.9279 204.548 96.0125C206.399 96.0971 208.205 96.6091 209.825 97.5084C211.445 98.4078 212.834 99.6701 213.885 101.196C214.935 102.723 215.618 104.471 215.88 106.306C216.141 108.14 215.975 110.01 215.393 111.769C214.811 113.528 213.829 115.129 212.525 116.445C211.221 117.761 209.63 118.758 207.877 119.356C206.123 119.955 204.255 120.14 202.418 119.895L202.822 116.861C204.19 117.043 205.582 116.906 206.888 116.46C208.194 116.014 209.379 115.271 210.351 114.291C211.322 113.31 212.053 112.118 212.487 110.808C212.92 109.497 213.044 108.104 212.849 106.738C212.655 105.371 212.146 104.069 211.363 102.932C210.581 101.795 209.546 100.855 208.339 100.185C207.132 99.5147 205.787 99.1333 204.408 99.0703C203.029 99.0073 201.654 99.2644 200.392 99.8216L199.156 97.0211Z"/>
</mask>
<path d="M199.156 97.0211C200.851 96.2732 202.697 95.9279 204.548 96.0125C206.399 96.0971 208.205 96.6091 209.825 97.5084C211.445 98.4078 212.834 99.6701 213.885 101.196C214.935 102.723 215.618 104.471 215.88 106.306C216.141 108.14 215.975 110.01 215.393 111.769C214.811 113.528 213.829 115.129 212.525 116.445C211.221 117.761 209.63 118.758 207.877 119.356C206.123 119.955 204.255 120.14 202.418 119.895L202.822 116.861C204.19 117.043 205.582 116.906 206.888 116.46C208.194 116.014 209.379 115.271 210.351 114.291C211.322 113.31 212.053 112.118 212.487 110.808C212.92 109.497 213.044 108.104 212.849 106.738C212.655 105.371 212.146 104.069 211.363 102.932C210.581 101.795 209.546 100.855 208.339 100.185C207.132 99.5147 205.787 99.1333 204.408 99.0703C203.029 99.0073 201.654 99.2644 200.392 99.8216L199.156 97.0211Z" stroke="#C4C4C4" stroke-width="2" mask="url(#path-4-inside-1_618:5721)"/>
</g>
<g opacity="0.2">
<mask id="path-5-inside-2_618:5721" fill="white">
<path d="M130 126C130 123.639 129.24 121.34 127.833 119.444C126.425 117.547 124.445 116.155 122.184 115.471C119.924 114.787 117.504 114.849 115.281 115.648C113.059 116.446 111.152 117.938 109.844 119.904C108.535 121.87 107.894 124.204 108.014 126.563C108.135 128.921 109.012 131.178 110.514 132.999C112.017 134.821 114.066 136.111 116.358 136.678C118.651 137.245 121.065 137.06 123.243 136.149L119 126H130Z"/>
</mask>
<path d="M130 126C130 123.639 129.24 121.34 127.833 119.444C126.425 117.547 124.445 116.155 122.184 115.471C119.924 114.787 117.504 114.849 115.281 115.648C113.059 116.446 111.152 117.938 109.844 119.904C108.535 121.87 107.894 124.204 108.014 126.563C108.135 128.921 109.012 131.178 110.514 132.999C112.017 134.821 114.066 136.111 116.358 136.678C118.651 137.245 121.065 137.06 123.243 136.149L119 126H130Z" stroke="#C4C4C4" stroke-width="2" mask="url(#path-5-inside-2_618:5721)"/>
</g>
<circle opacity="0.7" cx="272" cy="48" r="18" fill="#1A1A20"/>
<path d="M146.5 74.5H179.5V88C179.5 97.1127 172.113 104.5 163 104.5C153.887 104.5 146.5 97.1127 146.5 88V74.5Z" stroke="white"/>
<path d="M150 78H176V88C176 95.1797 170.18 101 163 101C155.82 101 150 95.1797 150 88V78Z" fill="url(#paint0_linear_618:5721)"/>
<path d="M150 132H176V122C176 114.82 170.18 109 163 109C155.82 109 150 114.82 150 122V132Z" fill="url(#paint1_linear_618:5721)"/>
<path d="M146.5 135.5H179.5V122C179.5 112.887 172.113 105.5 163 105.5C153.887 105.5 146.5 112.887 146.5 122V135.5Z" stroke="white"/>
<rect x="141.5" y="66.5" width="43" height="8" rx="4" stroke="white"/>
<rect x="0.5" y="-0.5" width="43" height="8" rx="4" transform="matrix(1 0 0 -1 141 143)" stroke="white"/>
<path opacity="0.2" d="M138 143.5H95" stroke="#C4C4C4"/>
<path opacity="0.2" d="M138 75L37 75" stroke="#C4C4C4"/>
<path opacity="0.2" d="M303 143H188" stroke="#C4C4C4"/>
<path opacity="0.2" d="M213 75H188" stroke="#C4C4C4"/>
<path opacity="0.2" d="M246 75H221" stroke="#C4C4C4"/>
<path opacity="0.2" d="M303 75H254" stroke="#C4C4C4"/>
<defs>
<linearGradient id="paint0_linear_618:5721" x1="156" y1="98.5" x2="164.5" y2="90" gradientUnits="userSpaceOnUse">
<stop/>
<stop offset="1" stop-color="#C4C4C4" stop-opacity="0"/>
</linearGradient>
<linearGradient id="paint1_linear_618:5721" x1="149.5" y1="131" x2="167" y2="120" gradientUnits="userSpaceOnUse">
<stop/>
<stop offset="1" stop-color="#C4C4C4" stop-opacity="0"/>
</linearGradient>
</defs>
</svg>
