<svg width="496" height="397" viewBox="0 0 496 397" fill="none" xmlns="http://www.w3.org/2000/svg">
<g opacity="0.1">
<rect y="151.442" width="171.232" height="258" rx="8" transform="rotate(-18.3168 0 151.442)" fill="#C4C4C4"/>
<path d="M102.772 303.226L36.4675 261.602L78.5676 388.776C79.9562 392.97 84.482 395.245 88.6765 393.856L236.044 345.072C240.238 343.683 242.513 339.157 241.124 334.963L210.237 241.661L143.098 199.514L102.772 303.226Z" fill="#DADADA"/>
<circle opacity="0.5" cx="120.395" cy="247.471" r="22.9999" transform="rotate(-18.3168 120.395 247.471)" fill="black"/>
<path d="M127.92 243.156C129.428 243.468 130.033 245.295 129.009 246.444L120.37 256.146C119.346 257.296 117.462 256.906 116.978 255.444L112.895 243.112C112.412 241.651 113.691 240.213 115.199 240.525L127.92 243.156Z" fill="white"/>
</g>
<g opacity="0.3">
<rect x="166.435" width="171.232" height="258" rx="8" fill="#C4C4C4"/>
<path d="M216.3 176.391L166.435 116.039V250C166.435 254.418 170.017 258 174.435 258H329.667C334.086 258 337.667 254.418 337.667 250V151.719L287.176 90.6069L216.3 176.391Z" fill="#DADADA"/>
<circle opacity="0.5" cx="250.551" cy="129" r="22.9999" fill="black"/>
<path d="M259.051 127.268C260.385 128.038 260.385 129.962 259.051 130.732L247.801 137.227C246.468 137.997 244.801 137.035 244.801 135.495L244.801 122.505C244.801 120.965 246.468 120.003 247.801 120.773L259.051 127.268Z" fill="white"/>
</g>
<rect x="329.005" y="59.1016" width="171.232" height="258" rx="8" transform="rotate(14.0199 329.005 59.1016)" fill="#C4C4C4"/>
<path d="M334.652 242.319L300.894 171.684L268.44 301.655C267.37 305.941 269.977 310.284 274.264 311.354L424.872 348.961C429.159 350.031 433.502 347.424 434.572 343.137L458.381 247.783L424.199 176.26L334.652 242.319Z" fill="#DADADA"/>
<circle opacity="0.5" cx="379.364" cy="204.637" r="22.9999" transform="rotate(14.0199 379.364 204.637)" fill="black"/>
<path d="M388.03 205.015C389.138 206.085 388.671 207.952 387.191 208.376L374.703 211.953C373.223 212.376 371.839 211.039 372.212 209.545L375.359 196.942C375.732 195.448 377.582 194.918 378.689 195.988L388.03 205.015Z" fill="white"/>
</svg>
