<svg width="35" height="32" viewBox="0 0 35 32" fill="none" xmlns="http://www.w3.org/2000/svg">
<path d="M14.1504 1.91045C15.5776 -0.636816 19.1457 -0.636816 20.573 1.91045L34.2211 26.2686C35.6484 28.8159 33.8643 32 31.0097 32H3.71363C0.859137 32 -0.924925 28.8159 0.502322 26.2686L14.1504 1.91045Z" fill="#F5222D"/>
<path d="M18.2646 21.028C18.2646 21.348 18.1613 21.5912 17.9547 21.7576C17.7603 21.9112 17.5415 21.988 17.2985 21.988C17.0554 21.988 16.8366 21.9112 16.6422 21.7576C16.4477 21.5912 16.3505 21.348 16.3505 21.028V12.0616C16.3505 11.7416 16.4477 11.5048 16.6422 11.3512C16.8366 11.1848 17.0554 11.1016 17.2985 11.1016C17.5415 11.1016 17.7603 11.1848 17.9547 11.3512C18.1613 11.5048 18.2646 11.7416 18.2646 12.0616V21.028ZM15.9859 24.1384C15.9859 23.7416 16.1196 23.4216 16.387 23.1784C16.6543 22.9224 16.9642 22.7944 17.3167 22.7944C17.6813 22.7944 17.9973 22.9224 18.2646 23.1784C18.532 23.4216 18.6657 23.7416 18.6657 24.1384C18.6657 24.5096 18.5381 24.8296 18.2829 25.0984C18.0277 25.3672 17.7056 25.5016 17.3167 25.5016C16.9399 25.5016 16.624 25.3672 16.3687 25.0984C16.1135 24.8296 15.9859 24.5096 15.9859 24.1384Z" fill="white"/>
</svg>
