<svg width="13" height="13" viewBox="0 0 13 13" fill="none" xmlns="http://www.w3.org/2000/svg">
<path d="M11.7271 1.93832C11.4167 1.62769 11.048 1.38127 10.6423 1.21315C10.2365 1.04503 9.80161 0.958496 9.36242 0.958496C8.92322 0.958496 8.48832 1.04503 8.08257 1.21315C7.67683 1.38127 7.30818 1.62769 6.99769 1.93832L6.35332 2.58269L5.70895 1.93832C5.08178 1.31116 4.23117 0.958821 3.34422 0.958821C2.45728 0.958821 1.60666 1.31116 0.979501 1.93832C0.352337 2.56549 6.60824e-09 3.4161 0 4.30305C-6.60824e-09 5.18999 0.352337 6.04061 0.979501 6.66777L1.62387 7.31214L6.35332 12.0416L11.0828 7.31214L11.7271 6.66777C12.0378 6.35728 12.2842 5.98863 12.4523 5.58289C12.6204 5.17714 12.707 4.74224 12.707 4.30305C12.707 3.86385 12.6204 3.42895 12.4523 3.0232C12.2842 2.61746 12.0378 2.24881 11.7271 1.93832Z" fill="#161616"/>
</svg>
