<svg width="21" height="20" viewBox="0 0 21 20" fill="none" xmlns="http://www.w3.org/2000/svg">
<circle cx="10.0547" cy="10" r="10" fill="black"/>
<path d="M9.39813 10.1187C9.63591 10.4366 9.93927 10.6996 10.2876 10.8899C10.636 11.0803 11.0212 11.1934 11.4172 11.2218C11.8132 11.2502 12.2106 11.193 12.5825 11.0543C12.9545 10.9155 13.2922 10.6984 13.5729 10.4177L15.2339 8.75663C15.7382 8.23451 16.0172 7.53521 16.0109 6.80934C16.0046 6.08348 15.7135 5.38913 15.2002 4.87585C14.6869 4.36256 13.9926 4.07141 13.2667 4.06511C12.5408 4.0588 11.8415 4.33784 11.3194 4.84212L10.3671 5.78891" stroke="#3360FF" stroke-linecap="round" stroke-linejoin="round"/>
<path d="M11.6129 9.01132C11.3751 8.69343 11.0718 8.43041 10.7234 8.24008C10.375 8.04974 9.98978 7.93656 9.59382 7.9082C9.19786 7.87985 8.80044 7.93698 8.4285 8.07572C8.05656 8.21446 7.71881 8.43158 7.43816 8.71233L5.77712 10.3734C5.27284 10.8955 4.9938 11.5948 5.0001 12.3207C5.00641 13.0465 5.29756 13.7409 5.81084 14.2542C6.32413 14.7674 7.01847 15.0586 7.74434 15.0649C8.4702 15.0712 9.16951 14.7922 9.69163 14.2879L10.6384 13.3411" stroke="#3360FF" stroke-linecap="round" stroke-linejoin="round"/>
</svg>
