<svg width="39" height="49" viewBox="0 0 39 49" fill="none" xmlns="http://www.w3.org/2000/svg">
<g filter="url(#filter0_d)">
<path d="M6.63161 12.0228C6.72572 10.9931 7.58927 10.2048 8.62332 10.2048H30.5017C31.5357 10.2048 32.3993 10.9931 32.4934 12.0228L34.9256 38.6376C35.0327 39.8091 34.1103 40.8196 32.9339 40.8196H6.19111C5.01467 40.8196 4.09234 39.8091 4.1994 38.6376L6.63161 12.0228Z" fill="#050505"/>
</g>
<mask id="mask0" mask-type="alpha" maskUnits="userSpaceOnUse" x="4" y="10" width="31" height="31">
<path d="M6.93601 10.032H32.1889L34.9563 40.8197H4.16858L6.93601 10.032Z" fill="#050505"/>
</mask>
<g mask="url(#mask0)">
<circle cx="32.8808" cy="31.8256" r="16.2587" fill="#2B2B2B"/>
</g>
<path d="M12.6537 6.23848C12.6537 3.3379 14.9845 1 17.8432 1H21.2818C24.1405 1 26.4713 3.3379 26.4713 6.23848V12.1304C26.4713 15.031 24.1405 17.3689 21.2818 17.3689H17.8432C14.9845 17.3689 12.6537 15.031 12.6537 12.1304V6.23848Z" stroke="#050505" stroke-width="2"/>
<defs>
<filter id="filter0_d" x="0.190918" y="10.2048" width="38.7431" height="38.6148" filterUnits="userSpaceOnUse" color-interpolation-filters="sRGB">
<feFlood flood-opacity="0" result="BackgroundImageFix"/>
<feColorMatrix in="SourceAlpha" type="matrix" values="0 0 0 0 0 0 0 0 0 0 0 0 0 0 0 0 0 0 127 0"/>
<feOffset dy="4"/>
<feGaussianBlur stdDeviation="2"/>
<feColorMatrix type="matrix" values="0 0 0 0 0 0 0 0 0 0 0 0 0 0 0 0 0 0 0.25 0"/>
<feBlend mode="normal" in2="BackgroundImageFix" result="effect1_dropShadow"/>
<feBlend mode="normal" in="SourceGraphic" in2="effect1_dropShadow" result="shape"/>
</filter>
</defs>
</svg>
