<svg width="93" height="140" viewBox="0 0 93 140" fill="none" xmlns="http://www.w3.org/2000/svg">
<rect x="0.643311" y="0.421875" width="92.3567" height="139.156" rx="8" fill="#C4C4C4"/>
<path d="M27.5381 95.5609L0.643066 63.0089V131.578C0.643066 135.996 4.22479 139.578 8.64306 139.578H84.9997C89.418 139.578 92.9997 135.996 92.9997 131.578V82.2535L65.7664 49.292L27.5381 95.5609Z" fill="#DADADA"/>
<circle opacity="0.5" cx="46.0331" cy="70.0331" r="22.0331" fill="white"/>
<path d="M44.738 59.9627L36.268 74.1027C36.0934 74.4052 36.001 74.748 36 75.0973C35.999 75.4465 36.0895 75.7899 36.2624 76.0933C36.4354 76.3967 36.6847 76.6495 36.9857 76.8266C37.2867 77.0037 37.6288 77.0989 37.978 77.1027H54.918C55.2672 77.0989 55.6093 77.0037 55.9103 76.8266C56.2113 76.6495 56.4607 76.3967 56.6336 76.0933C56.8065 75.7899 56.897 75.4465 56.896 75.0973C56.8951 74.748 56.8027 74.4052 56.628 74.1027L48.158 59.9627C47.9797 59.6689 47.7287 59.4259 47.4292 59.2572C47.1297 59.0886 46.7918 59 46.448 59C46.1043 59 45.7663 59.0886 45.4668 59.2572C45.1673 59.4259 44.9163 59.6689 44.738 59.9627Z" fill="#FF3333"/>
<path d="M46.448 65.1025V69.1025" stroke="white" stroke-width="2" stroke-linecap="round" stroke-linejoin="round"/>
<path d="M46.448 73.1025H46.458" stroke="white" stroke-width="2" stroke-linecap="round" stroke-linejoin="round"/>
</svg>
