<svg width="39" height="38" viewBox="0 0 39 38" fill="none" xmlns="http://www.w3.org/2000/svg">
<path fill-rule="evenodd" clip-rule="evenodd" d="M19.2671 0C8.77386 0 0.26709 8.50677 0.26709 19C0.26709 29.4932 8.77386 38 19.2671 38C29.7603 38 38.2671 29.4932 38.2671 19C38.2671 8.50677 29.7603 0 19.2671 0Z" fill="#24242C"/>
<path fill-rule="evenodd" clip-rule="evenodd" d="M16.658 12.2372C16.9353 12.2309 17.2271 12.3017 17.5066 12.4587L26.4934 17.8551C26.9829 18.1498 27.3179 18.6906 27.3179 19.3235C27.3179 19.9564 26.9829 20.4972 26.4934 20.7918L17.5066 26.1882C16.388 26.8166 15.1089 26.0159 15.0806 24.6964V13.9387C15.102 12.9492 15.8259 12.2566 16.658 12.2372Z" fill="white"/>
</svg>
