<svg width="80" height="80" viewBox="0 0 80 80" fill="#585858" xmlns="http://www.w3.org/2000/svg">
<rect width="80" height="80" fill="white"/>
<path fill-rule="evenodd" clip-rule="evenodd" d="M36.1131 34.0295V34.3907H43.0596V34.0295C43.0596 32.1123 41.5036 30.5007 39.6419 30.5007H39.5308C37.6691 30.5007 36.1131 32.1123 36.1131 34.0295ZM47.922 34.3908C48.2555 34.3908 48.5611 34.5297 48.8112 34.7798C49.0335 35.0021 49.1724 35.3355 49.1724 35.669V50.9235C49.1724 51.6182 48.6167 52.1739 47.922 52.1739H31.2504C30.5557 52.1739 30 51.6182 30 50.9235V35.6968C30 34.9743 30.5835 34.3908 31.2504 34.3908H33.6122V34.0296C33.6122 30.7508 36.3352 28 39.5306 28H39.6418C42.865 28 45.5602 30.7786 45.5602 34.0296V34.3908H47.922ZM36.391 38.5586C36.391 39.3259 35.7689 39.9479 35.0017 39.9479C34.2344 39.9479 33.6123 39.3259 33.6123 38.5586C33.6123 37.7913 34.2344 37.1693 35.0017 37.1693C35.7689 37.1693 36.391 37.7913 36.391 38.5586ZM45.5603 38.5586C45.5603 39.3259 44.9382 39.9479 44.171 39.9479C43.4037 39.9479 42.7817 39.3259 42.7817 38.5586C42.7817 37.7913 43.4037 37.1693 44.171 37.1693C44.9382 37.1693 45.5603 37.7913 45.5603 38.5586Z" fill="#585858"/>
</svg>
