<svg width="20" height="20" viewBox="0 0 20 20" fill="none" xmlns="http://www.w3.org/2000/svg">
<path d="M4.7384 1.54395L3.06695 5.79851L7.32152 7.46996" stroke="#FF8A8A" stroke-width="1.4" stroke-linecap="round" stroke-linejoin="round"/>
<path d="M3.45393 10.0435C3.40102 11.5292 3.83237 12.9918 4.68297 14.2109C5.53357 15.4301 6.75736 16.3398 8.16993 16.803C9.58251 17.2661 11.1073 17.2577 12.5147 16.7789C13.922 16.3001 15.1357 15.3769 15.9727 14.1483C16.8097 12.9198 17.2248 11.4525 17.1555 9.96759C17.0861 8.48264 16.536 7.06046 15.5881 5.91533C14.6401 4.7702 13.3457 3.96417 11.8998 3.61867C10.454 3.27317 8.935 3.40692 7.57177 3.99978L3.06698 5.79885" stroke="#FF8A8A" stroke-width="1.4" stroke-linecap="round" stroke-linejoin="round"/>
</svg>
