<svg width="16" height="17" viewBox="0 0 16 17" fill="none" xmlns="http://www.w3.org/2000/svg">
<path fill-rule="evenodd" clip-rule="evenodd" d="M7.00881 11.7232C4.40763 11.7232 2.29416 9.60974 2.29416 7.00855C2.29416 4.40737 4.40763 2.29391 7.00881 2.29391C9.61 2.29391 11.7235 4.40737 11.7235 7.00855C11.7235 9.60974 9.61 11.7232 7.00881 11.7232ZM12.6085 11.2357C13.4937 10.0613 14.0356 8.59836 14.0356 7.00857C14.0356 3.14292 10.8744 0 7.00875 0C3.1431 0 0 3.14292 0 7.00857C0 10.8744 3.1431 14.0173 7.00875 14.0173C8.45385 14.0173 9.80864 13.5657 10.9286 12.807C10.9467 12.8253 10.9467 12.8253 10.9647 12.8432L14.0356 15.914C14.2523 16.1308 14.5594 16.2574 14.8484 16.2574C15.1375 16.2574 15.4445 16.1488 15.6613 15.914C16.1129 15.4624 16.1129 14.7399 15.6613 14.2883L12.6085 11.2357Z" fill="black"/>
</svg>
