<svg width="22" height="22" viewBox="0 0 22 22" fill="none" xmlns="http://www.w3.org/2000/svg">
<path d="M15.0688 3.6535C15.4645 3.26809 16.1029 3.27119 16.4947 3.66042L18.7728 5.92325C19.1646 6.31248 19.1615 6.94045 18.7659 7.32586L3.99586 21.713C3.60019 22.0984 2.96178 22.0953 2.56993 21.706L0.291876 19.4432C-0.0999743 19.054 -0.0968811 18.426 0.298785 18.0406L15.0688 3.6535Z" fill="#7F838B"/>
<path d="M20.9503 0.00620751C21.5046 0.00648408 21.9538 0.452795 21.9535 1.00307L21.9519 4.17864C21.9516 4.72891 21.502 5.17477 20.9476 5.1745L8.50601 5.16829C7.95167 5.16801 7.50252 4.7217 7.5028 4.17143L7.50444 0.995861C7.50473 0.445585 7.95434 -0.000276444 8.50868 1.28601e-07L20.9503 0.00620751Z" fill="#7F838B"/>
<path d="M16.7458 1.06851C16.7459 0.51823 17.1953 0.0722184 17.7497 0.0723111L20.9964 0.0728542C21.5508 0.072947 22.0001 0.519109 22 1.06938L21.998 12.6379C21.9979 13.1882 21.5484 13.6342 20.9941 13.6341L17.7473 13.6335C17.193 13.6335 16.7437 13.1873 16.7438 12.637L16.7458 1.06851Z" fill="#7F838B"/>
</svg>
