<svg width="13" height="15" viewBox="0 0 13 15" fill="none" xmlns="http://www.w3.org/2000/svg">
<g>
<path d="M10.1666 5.05534C11.1791 5.05534 11.9999 4.23453 11.9999 3.22201C11.9999 2.20948 11.1791 1.38867 10.1666 1.38867C9.15406 1.38867 8.33325 2.20948 8.33325 3.22201C8.33325 4.23453 9.15406 5.05534 10.1666 5.05534Z" fill="#c7c7c7" stroke="#c7c7c7" stroke-width="2" stroke-linecap="round" stroke-linejoin="round"/>
<path d="M2.83333 9.33317C3.84586 9.33317 4.66667 8.51236 4.66667 7.49984C4.66667 6.48732 3.84586 5.6665 2.83333 5.6665C1.82081 5.6665 1 6.48732 1 7.49984C1 8.51236 1.82081 9.33317 2.83333 9.33317Z" fill="#c7c7c7" stroke="#c7c7c7" stroke-width="2" stroke-linecap="round" stroke-linejoin="round"/>
<path d="M10.1666 13.611C11.1791 13.611 11.9999 12.7902 11.9999 11.7777C11.9999 10.7651 11.1791 9.94434 10.1666 9.94434C9.15406 9.94434 8.33325 10.7651 8.33325 11.7777C8.33325 12.7902 9.15406 13.611 10.1666 13.611Z" fill="#c7c7c7" stroke="#c7c7c7" stroke-width="2" stroke-linecap="round" stroke-linejoin="round"/>
<path d="M4.41602 8.42236L8.5899 10.8546" stroke="#c7c7c7" stroke-width="2" stroke-linecap="round" stroke-linejoin="round"/>
<path d="M8.58379 4.14502L4.41602 6.57724" stroke="#c7c7c7" stroke-width="2" stroke-linecap="round" stroke-linejoin="round"/>
</g>
</svg>
