<svg width="12" height="14" viewBox="0 0 12 14" fill="none" xmlns="http://www.w3.org/2000/svg">
<path d="M0.800049 3.31113H1.9556H11.2" stroke="#FF8A8A" stroke-linecap="round" stroke-linejoin="round"/>
<path d="M3.6889 3.31111V2.15556C3.6889 1.84908 3.81065 1.55516 4.02735 1.33845C4.24406 1.12175 4.53798 1 4.84446 1H7.15557C7.46204 1 7.75596 1.12175 7.97267 1.33845C8.18938 1.55516 8.31112 1.84908 8.31112 2.15556V3.31111M10.0445 3.31111V11.4C10.0445 11.7065 9.92271 12.0004 9.706 12.2171C9.48929 12.4338 9.19537 12.5556 8.8889 12.5556H3.11112C2.80465 12.5556 2.51073 12.4338 2.29402 12.2171C2.07731 12.0004 1.95557 11.7065 1.95557 11.4V3.31111H10.0445Z" stroke="#FF8A8A" stroke-linecap="round" stroke-linejoin="round"/>
<path d="M4.84448 6.20001V9.66668" stroke="#FF8A8A" stroke-linecap="round" stroke-linejoin="round"/>
<path d="M7.15564 6.20001V9.66668" stroke="#FF8A8A" stroke-linecap="round" stroke-linejoin="round"/>
</svg>
