<?xml version="1.0" standalone="no"?>
<!DOCTYPE svg PUBLIC "-//W3C//DTD SVG 20010904//EN"
 "http://www.w3.org/TR/2001/REC-SVG-20010904/DTD/svg10.dtd">
<svg version="1.0" xmlns="http://www.w3.org/2000/svg"
 width="600.000000pt" height="310.000000pt" viewBox="0 0 600.000000 310.000000"
 preserveAspectRatio="xMidYMid meet">
<metadata>
Created by potrace 1.16, written by Peter Selinger 2001-2019
</metadata>
<g transform="translate(0.000000,310.000000) scale(0.100000,-0.100000)"
fill="#000000" stroke="none">
<path d="M2428 2881 c-31 -10 -79 -31 -105 -47 -156 -91 -313 -327 -380 -570
-23 -84 -27 -119 -27 -229 0 -110 4 -145 27 -228 15 -55 27 -103 27 -107 0 -5
-51 -38 -112 -74 -79 -45 -114 -61 -116 -52 -2 8 15 126 37 262 50 309 56 356
81 576 31 279 28 308 -47 365 -31 24 -47 28 -112 31 -64 2 -82 -1 -115 -20
-53 -31 -71 -65 -116 -221 -21 -72 -48 -161 -60 -197 -35 -107 -133 -299 -199
-391 -74 -104 -202 -232 -224 -224 -38 15 -49 119 -21 202 9 26 41 86 72 133
75 117 109 185 127 261 55 235 -53 444 -248 478 -70 12 -145 3 -198 -24 -75
-39 -148 -143 -149 -213 0 -76 65 -150 153 -173 26 -7 47 -17 47 -23 0 -5 -31
-57 -68 -115 -137 -212 -170 -359 -122 -546 37 -146 135 -277 250 -333 50 -24
65 -27 160 -26 120 0 158 13 267 89 35 25 65 45 67 45 6 0 -16 -94 -23 -102
-4 -4 -89 -30 -189 -57 -290 -80 -414 -141 -542 -270 -254 -255 -245 -631 18
-800 198 -127 490 -101 693 62 143 115 269 362 334 659 9 42 22 81 28 86 7 5
53 26 102 47 132 55 267 125 375 193 l95 60 42 -30 c24 -16 71 -42 106 -58
209 -98 409 -77 594 61 29 21 56 39 60 39 4 0 19 -16 32 -35 31 -45 107 -101
174 -128 77 -30 237 -30 329 1 64 22 146 71 216 128 l32 27 53 -51 c95 -89
198 -125 362 -126 137 -1 239 32 350 113 48 35 54 36 155 41 92 5 114 9 174
38 39 18 89 49 113 68 24 20 46 34 49 31 9 -8 -7 -95 -20 -110 -6 -8 -69 -29
-141 -47 -489 -125 -700 -283 -761 -571 -55 -256 66 -462 321 -551 244 -85
534 26 691 265 110 167 182 386 278 844 94 450 209 1287 186 1357 -12 38 -63
90 -103 105 -40 15 -132 14 -170 -3 -66 -28 -84 -61 -138 -246 -74 -257 -131
-386 -240 -550 -67 -100 -211 -254 -232 -248 -27 9 -48 71 -43 128 7 71 25
115 92 218 105 161 138 248 138 367 0 150 -69 281 -178 337 -61 32 -197 37
-259 10 -103 -46 -187 -162 -172 -241 14 -76 79 -138 163 -156 44 -9 41 -26
-19 -115 -60 -89 -109 -185 -135 -260 -26 -79 -25 -242 4 -328 l20 -64 -51
-23 c-79 -34 -111 -39 -147 -20 -41 21 -79 102 -87 187 -6 73 -5 78 128 507
90 289 96 331 52 398 -62 96 -194 114 -295 41 -14 -10 -30 -6 -95 27 -66 33
-90 39 -159 43 -150 8 -271 -45 -404 -178 -135 -134 -199 -245 -308 -530 -66
-173 -98 -240 -152 -320 -97 -143 -181 -185 -273 -138 -15 8 -9 18 51 84 340
368 461 848 265 1049 -107 110 -285 154 -435 106z m-10 -73 c7 -7 12 -23 12
-37 -1 -21 -16 -36 -70 -74 -51 -34 -83 -66 -117 -117 -49 -70 -66 -80 -104
-60 -29 16 -23 52 21 118 44 66 89 109 159 154 48 30 80 35 99 16z m3046 -51
c12 -33 -7 -57 -45 -59 -13 -1 -36 -10 -51 -21 -46 -31 -103 6 -78 52 22 42
61 62 114 59 45 -3 52 -6 60 -31z m-3769 -1 c8 -13 13 -31 9 -40 -7 -18 -96
-66 -123 -66 -46 0 -54 54 -13 92 48 45 103 51 127 14z m2820 -2 c26 -27 13
-54 -47 -96 -44 -31 -63 -39 -82 -34 -41 10 -45 51 -10 88 50 53 110 71 139
42z m-992 -35 c19 -30 -2 -63 -75 -116 -39 -29 -81 -53 -93 -53 -47 0 -60 52
-22 88 12 11 47 39 77 61 58 43 95 49 113 20z m-943 -214 c26 -31 -17 -158
-95 -281 -51 -80 -167 -234 -177 -234 -4 0 -8 19 -8 43 1 113 60 273 145 392
64 91 106 115 135 80z m1116 -127 c14 -24 37 -52 51 -64 l24 -21 -35 -124
c-48 -173 -80 -258 -139 -374 -77 -151 -152 -218 -223 -201 -78 20 -75 283 6
463 79 174 218 363 268 363 15 0 30 -13 48 -42z m-2934 -215 c23 -21 23 -30
-3 -116 -19 -62 -21 -85 -16 -193 6 -115 5 -124 -13 -134 -47 -25 -67 -1 -85
99 -16 92 -10 167 21 266 30 93 56 114 96 78z m3698 -103 c8 -14 8 -31 0 -58
-5 -20 -13 -72 -16 -115 -6 -67 -10 -80 -28 -86 -28 -11 -55 -2 -67 21 -17 32
7 214 33 246 17 20 66 15 78 -8z m-1938 -476 c54 -27 68 -28 205 -8 35 5 43 3
53 -15 18 -34 3 -57 -50 -80 -139 -60 -360 26 -284 110 9 10 19 19 21 19 2 0
27 -12 55 -26z m804 -9 c40 -27 79 -32 118 -13 54 24 91 -55 41 -88 -13 -9
-50 -18 -82 -21 -48 -4 -66 -1 -103 19 -57 31 -79 66 -62 102 15 33 41 33 88
1z m907 -33 c37 -33 4 -82 -56 -82 -94 0 -153 41 -127 90 11 20 16 21 88 15
46 -5 84 -13 95 -23z m-3341 -339 c40 -36 22 -60 -89 -117 -50 -27 -93 -60
-143 -112 -39 -41 -77 -74 -85 -74 -16 0 -55 34 -55 48 0 22 68 107 116 145
59 46 201 127 223 127 8 0 23 -7 33 -17z m3697 -17 c7 -8 11 -27 9 -42 -2 -23
-15 -34 -74 -64 -40 -19 -90 -52 -113 -73 -57 -52 -111 -47 -111 9 0 31 86
106 172 149 77 38 99 42 117 21z m-3379 -219 c0 -14 -53 -153 -74 -195 -34
-67 -98 -138 -148 -163 -53 -27 -146 -26 -182 2 -76 59 9 213 157 282 62 30
247 85 247 74z m3707 -69 c-82 -215 -172 -308 -303 -308 -79 0 -108 26 -108
98 0 113 108 193 344 257 47 12 86 21 88 20 1 -1 -8 -31 -21 -67z m-4009 -344
c30 -2 58 -6 63 -9 13 -9 11 -61 -3 -73 -34 -26 -164 -17 -200 16 -42 36 -7
88 51 77 20 -4 60 -9 89 -11z m3663 0 c27 -4 62 -1 83 6 49 16 89 -7 84 -48
-9 -80 -295 -76 -306 4 -5 33 25 57 62 50 17 -4 52 -9 77 -12z"/>
</g>
</svg>
